<?xml version="1.0" encoding="UTF-8" standalone="no"?>
<!-- Created with Inkscape (http://www.inkscape.org/) -->

<svg
   width="500.85715mm"
   height="140.29184mm"
   viewBox="0 0 500.85714 140.29184"
   version="1.1"
   id="svg1"
   inkscape:version="1.4 (86a8ad7, 2024-10-11)"
   sodipodi:docname="Boss logo 2021.svg"
   xmlns:inkscape="http://www.inkscape.org/namespaces/inkscape"
   xmlns:sodipodi="http://sodipodi.sourceforge.net/DTD/sodipodi-0.dtd"
   xmlns="http://www.w3.org/2000/svg"
   xmlns:svg="http://www.w3.org/2000/svg">
  <sodipodi:namedview
     id="namedview1"
     pagecolor="#ffffff"
     bordercolor="#000000"
     borderopacity="0.25"
     inkscape:showpageshadow="2"
     inkscape:pageopacity="0.0"
     inkscape:pagecheckerboard="0"
     inkscape:deskcolor="#d1d1d1"
     inkscape:document-units="mm"
     inkscape:zoom="0.98646753"
     inkscape:cx="1725.8551"
     inkscape:cy="538.79118"
     inkscape:window-width="1920"
     inkscape:window-height="1001"
     inkscape:window-x="-9"
     inkscape:window-y="-9"
     inkscape:window-maximized="1"
     inkscape:current-layer="layer1" />
  <defs
     id="defs1" />
  <g
     inkscape:label="Layer 1"
     inkscape:groupmode="layer"
     id="layer1"
     transform="translate(-89.429153,-92.604161)">
    <g
       id="use2"
       transform="matrix(1.1779331,0,0,1.1779331,339.85773,162.69118)">
	<g
   id="g6">
		<path
   d="m -43.9,-31.2 c -17,0 -29.1,14.2 -29.1,31.2 0,17 12.1,31.2 29.1,31.2 17,0 29.1,-14.2 29.1,-31.2 0,-17 -12.1,-31.2 -29.1,-31.2 z m 0,90.7 c -32.6,0 -59.5,-25.5 -59.5,-59.5 0,-34 26.9,-59.5 59.5,-59.5 32.6,0 59.5,25.5 59.5,59.5 0,34 -26.9,59.5 -59.5,59.5 z M 82.2,24.1 c 0,4.2 -4.2,7.8 -11.3,7.8 C 55.3,31.9 45.4,21.3 45.4,21.3 L 28.4,44 c 0,0 14.2,15.6 42.5,15.6 22.7,0 42.5,-14.2 42.5,-35.4 0,-34 -53.9,-36.8 -53.9,-48.2 0,-4.2 5.7,-7.8 14.2,-7.8 11.3,0 17.7,5.7 17.7,5.7 l 16.3,-22 c 0,0 -14.2,-11.3 -36.9,-11.3 -21.3,0 -39.7,15.6 -39.7,35.4 0.1,33.9 51.1,35.3 51.1,48.1 z M -134.6,-5.7 c 5,-6.4 7.1,-12.7 7.1,-19.8 0,-17.2 -14,-31.2 -31.2,-31.2 h -53.9 V 56.7 h 58.8 c 19.2,0 34.7,-15.6 34.7,-34.7 0,-11.9 -5.6,-22 -15.5,-27.7 z m -48.9,-26.2 h 17.7 c 5.5,0 9.9,4.4 9.9,9.9 0,5.5 -4.4,9.9 -9.9,9.9 h -17.7 z m 23.3,63.1 h -23.4 V 9.9 h 23.4 c 5.9,0 10.6,4.8 10.6,10.6 0.1,5.9 -4.7,10.7 -10.6,10.7 z m 341.6,-7.1 c 0,4.2 -4.2,7.8 -11.3,7.8 -15.6,0 -25.5,-10.6 -25.5,-10.6 l -17,22.7 c 0,0 14.2,15.6 42.5,15.6 22.7,0 42.5,-14.2 42.5,-35.4 0,-34 -53.9,-36.8 -53.9,-48.2 0,-4.2 5.7,-7.8 14.2,-7.8 11.3,0 17.7,5.7 17.7,5.7 l 16.3,-22 c 0,0 -14.2,-11.3 -36.8,-11.3 -21.3,0 -39.7,15.6 -39.7,35.4 0,33.9 51,35.3 51,48.1 z"
   id="path3" />

	</g>

</g>
  </g>
</svg>
