<svg xmlns="http://www.w3.org/2000/svg" width="179.333px" height="36.333px">
	<path d="M38.893,22.074c0,8.893,3.597,12.977,12.442,12.977
		c2.041,0,4.666-0.535,6.221-1.264c5.492-2.625,5.978-6.902,5.978-12.395V6.083c0-1.409,0.729-2.965,4.568-2.965V2.196H56.827
		v0.923c3.84,0,4.569,1.556,4.569,2.965v15.309c0,4.617-0.049,11.471-9.137,11.471c-6.075,0-8.408-2.867-8.408-10.449V6.083
		c0-1.409,0.729-2.965,4.277-2.965V2.196H34.616v0.923c3.548,0,4.277,1.556,4.277,2.965V22.074L38.893,22.074z M11.477,17.372
		l0.879,1.039l0,0l4.303,0.014c3.77-0.093,6.309-0.333,6.328,4.714h0.719V11.767h-0.719c0.062,4.806-3.071,4.666-6.328,4.666
		l-4.223-0.019L11.477,17.372L11.477,17.372z M11.072,16.432V5.983c0-1.166,0.389-1.896,2.09-1.896h6.416
		c3.402,0,6.318-0.389,6.95,4.958h0.527v-6.95H1.837v0.924c3.548,0,4.277,1.555,4.277,2.964v24.398
		c0,1.408-0.729,2.965-4.277,2.965v0.924h13.608v-0.924c-3.645,0-4.374-1.557-4.374-2.965V18.425l0,0V16.432L11.072,16.432z
		 M161.109,1.706h-0.972l-9.865,23.134c-1.993,4.715-3.256,8.262-6.27,8.506v0.924h9.623v-0.924c-1.652,0-3.305-0.438-3.305-2.041
		c0-1.799,1.992-5.688,2.624-7.533h12.733l1.75,4.131c1.847,4.324,1.896,5.248-2.235,5.443v0.924h12.393v-0.924
		c-2.722,0.145-3.742-2.771-4.617-4.764L161.109,1.706L161.109,1.706z M159.359,8.464l5.638,13.366H153.77L159.359,8.464
		L159.359,8.464z M137.37,34.27l2.332-8.457l-0.716,0.1c-2.673,6.658-7.01,6.094-13.171,6.465c-4.352,0.262-4.86-0.535-4.86-1.895
		V6.083c0-1.409,0.729-2.965,4.277-2.965V2.196H111.72v0.923c3.548,0,4.277,1.556,4.277,2.965v24.399
		c0,1.408-0.729,2.963-4.277,2.963l-0.009,0.824H137.37L137.37,34.27z M78.828,30.381c0,1.408-0.729,2.965-4.131,2.965v0.924
		h13.366v-0.924c-3.548,0-4.277-1.557-4.277-2.965V17.479L97.434,34.27h7.825v-0.924c-2.187-0.146-3.715-1.152-5.027-2.756
		l-9.623-11.859c4.568-0.632,9.846-2.979,9.846-8.131c0-5.687-4.86-8.505-12.928-8.505H74.697v0.924
		c3.402,0,4.131,1.555,4.131,2.964V30.381L78.828,30.381z M83.786,6.226c0-2.284,0.437-2.284,3.596-2.284
		c4.375,0,7.711,1.896,7.776,6.707c0.088,6.404-4.149,6.963-11.372,6.95V6.226L83.786,6.226z"/>
</svg>
