<?xml version="1.0" encoding="UTF-8" standalone="no"?>
<!-- Created with Inkscape (http://www.inkscape.org/) -->

<svg
   width="251.96466mm"
   height="60.455685mm"
   viewBox="0 0 251.96466 60.455685"
   version="1.1"
   id="svg1"
   inkscape:version="1.4 (86a8ad7, 2024-10-11)"
   sodipodi:docname="Hugo logo 20w1.svg"
   xmlns:inkscape="http://www.inkscape.org/namespaces/inkscape"
   xmlns:sodipodi="http://sodipodi.sourceforge.net/DTD/sodipodi-0.dtd"
   xmlns="http://www.w3.org/2000/svg"
   xmlns:svg="http://www.w3.org/2000/svg">
  <sodipodi:namedview
     id="namedview1"
     pagecolor="#ffffff"
     bordercolor="#000000"
     borderopacity="0.25"
     inkscape:showpageshadow="2"
     inkscape:pageopacity="0.0"
     inkscape:pagecheckerboard="0"
     inkscape:deskcolor="#d1d1d1"
     inkscape:document-units="mm"
     inkscape:zoom="0.69753788"
     inkscape:cx="475.24301"
     inkscape:cy="113.97231"
     inkscape:window-width="1920"
     inkscape:window-height="1001"
     inkscape:window-x="-9"
     inkscape:window-y="-9"
     inkscape:window-maximized="1"
     inkscape:current-layer="layer1" />
  <defs
     id="defs1">
    <clipPath
       id="SVGID_1_">
		<rect
   id="use3"
   x="34.099998"
   y="168.7"
   width="266.5"
   height="64" />

	</clipPath>
    <rect
       id="rect1"
       x="34.099998"
       y="168.7"
       width="266.5"
       height="64" />
  </defs>
  <g
     inkscape:label="Layer 1"
     inkscape:groupmode="layer"
     id="layer1"
     transform="translate(83.608331,1.8538575)">
    <g
       id="g5"
       transform="matrix(0.94569825,0,0,0.94569825,-115.85664,-161.40904)">
	<defs
   id="defs2">
		<rect
   id="rect3"
   x="34.099998"
   y="168.7"
   width="266.5"
   height="64" />

	</defs>

	<clipPath
   id="clipPath1">
		<rect
   id="use1"
   x="34.099998"
   y="168.7"
   width="266.5"
   height="64" />

	</clipPath>

	<g
   clip-path="url(#SVGID_1_)"
   id="g4">
		
			<g
   id="use4"
   transform="matrix(0.5372,0,0,-0.5372,167.3068,200.6802)">
	<path
   class="st0"
   d="M -177.2,56.7 V 14.2 h -39.7 V 56.7 H -248 V -56.7 h 31.2 v 45.4 h 39.7 v -45.4 h 31.2 V 56.7 Z M -68,-59.5 c -25.5,0 -51,17 -51,51 v 65.2 h 31.2 v -68 c 0,-14.2 11.3,-19.8 19.8,-19.8 8.5,0 19.9,5.6 19.9,19.8 v 68 H -17 V -8.5 c 0,-34 -25.5,-51.1 -51,-51 z m 130.4,0 C 29.8,-59.5 2.8,-34 2.8,0 2.8,34 29.7,59.5 62.3,59.5 85,59.5 99.1,48.2 99.1,48.2 l -17.7,-22 c 0,0 -6.4,5.7 -19.1,5.7 -17,0 -29,-14.9 -29,-31.9 0,-17 12,-31.2 29,-31.2 14.2,0 21.3,5.7 21.3,5.7 v 14.2 H 59.5 v 24.8 h 51 v -53.2 c 0,0 -15.5,-19.8 -48.1,-19.8 z m 126.1,90.7 c -17,0 -29,-14.2 -29,-31.2 0,-17 12,-31.2 29,-31.2 17,0 29,14.2 29,31.2 0,17 -12,31.2 -29,31.2 z m 0,-90.7 C 155.9,-59.5 129,-34 129,0 129,34 155.9,59.5 188.5,59.5 221.1,59.5 248,34 248,0 c 0,-34 -26.9,-59.5 -59.5,-59.5 z"
   id="path7"
   style="fill:#b51f29" />

</g>

	</g>

</g>
  </g>
</svg>
