<?xml version="1.0" encoding="UTF-8" standalone="no"?>
<svg
   height="80.07267"
   viewBox="1.947 0.089 59.1008 9.5201209"
   width="500"
   version="1.1"
   id="svg3"
   sodipodi:docname="lacoste-logo.svg"
   inkscape:version="1.4 (86a8ad7, 2024-10-11)"
   xmlns:inkscape="http://www.inkscape.org/namespaces/inkscape"
   xmlns:sodipodi="http://sodipodi.sourceforge.net/DTD/sodipodi-0.dtd"
   xmlns="http://www.w3.org/2000/svg"
   xmlns:svg="http://www.w3.org/2000/svg">
  <defs
     id="defs3" />
  <sodipodi:namedview
     id="namedview3"
     pagecolor="#ffffff"
     bordercolor="#000000"
     borderopacity="0.25"
     inkscape:showpageshadow="2"
     inkscape:pageopacity="0.0"
     inkscape:pagecheckerboard="0"
     inkscape:deskcolor="#d1d1d1"
     inkscape:zoom="1.8424779"
     inkscape:cx="241.2512"
     inkscape:cy="37.720941"
     inkscape:window-width="1920"
     inkscape:window-height="1001"
     inkscape:window-x="-9"
     inkscape:window-y="-9"
     inkscape:window-maximized="1"
     inkscape:current-layer="svg3" />
  <path
     d="M 15.260697,0.71750799 C 15.117866,0.33870148 14.846885,0.17555184 14.350603,0.16810881 c -0.0453,-0.0014 -2.341639,0.002 -2.341639,0.002 L 8.6095702,9.4256085 h 1.6546268 a 0.80830721,0.80830721 0 0 0 0.394301,-0.06558 C 10.98037,9.2131729 11.13829,8.8399994 11.18416,8.7126579 c 0,0.0032 0.462492,-1.2895091 0.494272,-1.3740014 l 3.419724,-0.0012 c 0.0714,0.2180698 0.694643,2.0841372 0.694643,2.0841372 h 2.239439 l -1.420476,-4.504231 z m -0.689613,4.72008771 -2.304419,4.02e-4 c 0.248651,-0.6803617 0.867453,-2.4019875 1.131584,-3.0988463 0.228331,0.7028938 1.166795,3.0757112 1.172835,3.0984443 z M 31.374141,0.09608852 h -0.001 c -2.648831,0.0036 -4.570219,1.99200098 -4.570219,4.72551978 0,2.6785986 1.963838,4.6993666 4.571429,4.6993666 2.60617,0 4.649878,-2.0628122 4.649878,-4.6993666 0,-2.6502335 -2.043708,-4.72551978 -4.649878,-4.72551978 m 0.0664,7.36006218 c -1.350266,0 -2.40842,-1.1675996 -2.40842,-2.6594875 0,-1.4780079 1.035424,-2.5914923 2.40681,-2.5914923 1.361535,0 2.348879,1.0891433 2.348879,2.5914923 -2e-4,1.517235 -1.009884,2.6594875 -2.347269,2.6594875 z m 10.575792,-3.4647777 -0.0869,-0.02535 c 0.002,0.0012 -0.861413,-0.261523 -0.863623,-0.263937 l -0.128952,-0.04587 C 40.231556,3.4013317 39.730644,3.1874858 39.730644,2.7768952 v -0.03018 c 0.07,-0.6817707 1.335775,-0.6890128 1.347845,-0.6890128 0.697863,0 1.234385,0.1066215 1.913948,0.3798125 l 0.0145,0.0054 0.0292,0.0084 c 0.15691,0.03179 0.294311,0.03621 0.405561,0.01147 l 0.188101,-0.07121 c 0.270171,-0.1484648 0.538732,-0.935448 0.641733,-1.2667773 l 0.0334,-0.1062194 -0.0831,-0.0764403 C 44.189231,0.91095776 43.991291,0.74800712 43.271298,0.47944305 42.539035,0.20504496 41.501991,0.16219579 41.501991,0.16219579 l -0.511772,-0.0022 c -2.672171,0 -3.692305,1.64900251 -3.724695,2.75645191 -0.0221,1.1034264 0.606132,1.6713337 1.555456,2.1871367 0.397112,0.2200819 1.122534,0.4224607 1.648607,0.5695173 -0.003,-0.0024 0.544562,0.1597296 0.544562,0.1597296 0.995404,0.3126212 1.375815,0.6598426 1.305005,1.1985798 -0.0318,0.1780377 -0.368142,0.4727538 -1.132395,0.4727538 -0.581382,0 -1.106844,-0.08932 -1.653836,-0.2802321 C 39.270202,7.1195244 38.998411,6.9847399 38.71134,6.8143472 l -0.0139,-0.0086 -0.0294,-0.01267 c -0.15892,-0.05935 -0.301151,-0.08409 -0.423261,-0.07383 l -0.210231,0.04526 C 37.727767,6.8793757 37.301085,7.6583117 37.130484,7.98763 l -0.0672,0.1301576 0.116081,0.09193 c 0.0205,0.01388 0.495281,0.3912796 0.898633,0.6274545 0.474762,0.2631321 1.008064,0.4536418 1.637537,0.5809833 0.253871,0.04627 0.657022,0.1046094 1.288505,0.1046094 2.070658,0 3.574814,-1.0487071 3.747825,-2.6106033 0.0752,-1.4170516 -0.794234,-2.3416363 -2.735331,-2.9208096 z M 46.44312,0.18158686 c -0.0859,-0.0014 -0.537732,0.0074 -0.797443,0.24764198 -0.1195,0.10983944 -0.182061,0.25669502 -0.182061,0.42205768 l -0.001,1.46432788 c 0,0 2.49815,-0.002 2.825252,-0.002 v 7.1154373 l 2.314279,-0.002 V 2.3136253 c 0.308601,-4.02e-4 1.818387,-4.02e-4 1.818387,-4.02e-4 0.0855,0 0.536322,-0.0097 0.796843,-0.2488489 A 0.56730372,0.56730372 0 0 0 53.400038,1.6411097 V 0.18160986 Z M 6.7463429,7.3344423 H 4.1484125 c 0,-0.3411874 -0.007,-6.3087401 -0.007,-6.3087401 0,-0.26192503 -0.0785,-0.46973485 -0.2359709,-0.61498043 C 3.6537706,0.17434483 3.2789891,0.17555184 3.1391785,0.17856885 l -1.3651554,-0.003 0.003,9.24986665 h 5.791733 l 0.004,-1.4699598 c 0,-0.1880957 -0.0803,-0.6210164 -0.8266132,-0.6210164 z M 23.305779,2.1478377 c 0.561272,-0.03742 1.033614,0 1.479215,0.1219095 0.239191,0.07986 0.455252,0.09576 0.638313,0.04406 l 0.184681,-0.08208 C 25.867099,2.0721986 26.052569,1.2590624 26.14008,0.79053448 l 0.0201,-0.10983944 -0.0945,-0.0680003 c -0.0235,-0.0171001 -0.0972,-0.0686003 -0.935853,-0.29491717 A 6.8368145,6.8368145 0 0 0 23.351069,0.08904549 l -0.037,4.0201e-4 c -1.916768,0 -4.803169,1.265168 -4.88586,4.7488549 v 0.01971 c 0.0827,3.4848939 2.969292,4.7496599 4.88727,4.7496599 l 0.0356,0.0014 c 0.335151,0.0014 1.013904,-0.02615 1.778757,-0.2313469 0.838893,-0.2245079 0.912313,-0.2766111 0.936863,-0.2941132 l 0.0937,-0.06639 -0.0201,-0.1104434 c -0.0875,-0.4711442 -0.27299,-1.2824684 -0.532101,-1.443205 v -0.0012 l -0.184071,-0.08107 c -0.183671,-0.05009 -0.399932,-0.0338 -0.642543,0.04768 -0.443181,0.1190935 -0.915333,0.1577187 -1.482636,0.1203005 -1.451655,-0.1420276 -2.323529,-1.1299805 -2.389309,-2.7089757 0.0656,-1.5639072 0.937654,-2.5516602 2.39595,-2.6924797 z m 36.950176,7.2733568 c 0.357481,-0.0078 0.964824,-0.2184728 0.964824,-0.9292117 l -0.007,-1.1607596 -4.078356,0.002 c 0,0 0.007,-1.3305493 0.007,-1.5510332 h 3.366613 l -0.006,-2.1398615 c 0,0 -3.021592,0.0036 -3.354933,0.0036 -8.1e-4,-0.253074 0,-1.0756642 0,-1.3301462 0.333341,0 3.090592,-0.0038 3.090592,-0.0038 0.0847,0.0014 0.546182,0.0018 0.796043,-0.2474409 0.174611,-0.1750187 0.182661,-0.493474 0.182661,-0.6594407 V 0.18338687 h -6.415566 l 10e-4,9.24523973 z"
     id="path3"
     style="stroke-width:0.201172" />
</svg>
