<?xml version="1.0" encoding="UTF-8" standalone="no"?>
<!-- Created with Inkscape (http://www.inkscape.org/) -->
<svg
   xmlns:svg="http://www.w3.org/2000/svg"
   xmlns="http://www.w3.org/2000/svg"
   version="1.0"
   width="877.14288"
   height="157.14285"
   id="svg9896">
  <defs
     id="defs9898" />
  <g
     transform="translate(428.57144,-395.21933)"
     id="layer1">
    <path
       d="M 391.88815,514.43809 L 391.92543,430.86026 C 391.92543,423.80172 389.13557,417.81811 383.79817,412.97779 L 417.50021,412.97779 C 410.77099,419.09809 409.25489,426.03858 409.25489,430.88511 L 409.23625,514.45673 L 409.22382,515.80506 C 409.15547,520.48383 409.15547,526.79054 415.07073,532.34541 L 385.8362,532.34541 C 391.90057,526.6787 391.92543,520.24772 391.89436,515.48196 L 391.88815,514.43809 z M 279.44237,514.43809 L 279.44237,435.04816 C 279.44237,421.85067 274.47157,416.18396 269.00369,411.95256 C 269.78659,412.05198 270.63784,412.15761 271.59472,412.27567 C 276.05601,412.84731 282.17631,413.64264 289.40262,413.64264 C 295.77146,413.64264 305.71307,413.36303 313.69742,413.13934 L 323.59553,412.88459 C 336.97942,412.62984 349.05225,416.78667 356.69486,424.29258 C 362.6474,430.12706 365.78522,437.83802 365.78522,446.59906 C 365.78522,456.44746 359.64628,469.08573 346.15676,473.57809 L 344.70901,474.05032 L 346.16297,474.52255 C 346.22511,474.5474 352.95433,476.79047 357.24786,484.82453 C 361.04432,491.95764 361.67809,498.30162 362.48585,506.32947 L 362.8773,510.15699 C 364.39961,524.32378 369.48847,530.30738 371.79368,532.34541 L 350.05884,532.34541 C 349.67982,532.09687 347.04529,530.03399 345.68453,520.57082 C 344.87057,514.77984 344.73387,511.74143 344.6096,508.80245 C 344.50397,506.2984 344.39834,503.93106 343.88883,500.04762 C 342.72691,491.15609 333.37558,478.8285 318.85463,478.8285 C 304.73133,478.8285 297.3559,478.92792 297.28755,478.92792 L 296.79669,478.93413 L 296.79669,479.425 L 296.79047,494.21935 L 296.79047,494.46789 L 296.79047,514.43809 L 296.77805,515.78642 C 296.72213,520.4714 296.71591,526.79054 302.63738,532.34541 L 273.40906,532.34541 C 279.46101,526.6787 279.47965,520.24772 279.44859,515.48817 L 279.44237,514.43809 z M 226.21129,413.15798 L 259.9009,413.15798 C 253.17789,419.27207 251.66801,426.21255 251.66801,431.0653 L 251.70529,431.02181 C 251.63694,431.6183 251.64316,433.63148 251.6618,441.3238 L 251.70529,463.81668 C 251.70529,463.81668 251.79849,496.51213 251.79849,496.53078 C 252.01597,503.77572 251.04666,517.33359 242.09922,526.69734 C 236.49464,532.55046 228.7961,535.60129 219.19003,535.7442 C 209.39755,535.89332 203.81782,533.96092 200.13943,532.68715 C 198.4245,532.09066 197.18801,531.66814 196.10686,531.63707 C 193.02496,531.56872 191.02422,532.50075 188.73765,534.93023 L 188.73765,492.27453 C 189.78151,494.09508 190.82538,496.02748 191.90032,498.09658 C 197.55461,508.89565 203.96694,521.13625 217.35083,521.13625 C 232.39994,521.13625 233.95331,508.42342 234.26399,495.40613 C 234.26399,495.3937 234.28263,431.13365 234.28263,431.13365 C 234.28263,423.98191 231.51141,417.96724 226.21129,413.15798 M 149.66092,514.43809 L 149.6982,430.86026 C 149.6982,423.80793 146.90213,417.81811 141.57715,412.97779 L 175.26677,412.97779 C 168.54997,419.09809 167.03388,426.03858 167.03388,430.88511 L 167.01524,514.45673 L 167.00281,515.81749 C 166.93446,520.49005 166.93446,526.79675 172.84972,532.34541 L 143.6214,532.34541 C 149.67956,526.6787 149.6982,520.24772 149.66714,515.48817 L 149.66092,514.43809 z M 47.051122,514.43809 L 47.051122,435.04816 C 47.051122,421.85689 42.080319,416.19017 36.600009,411.95256 C 37.395338,412.05198 38.252801,412.15761 39.197254,412.27567 C 43.664763,412.84731 49.77885,413.64264 57.011369,413.64264 C 63.38021,413.64264 73.309389,413.36303 81.287527,413.13934 L 91.204279,412.88459 C 103.14663,412.65469 113.06339,416.05348 119.85474,422.72057 C 125.99369,428.74766 129.24956,437.26016 129.24956,447.32604 C 129.24956,460.70371 123.2411,477.52988 94.62792,481.71157 C 68.972363,485.39618 64.399224,486.68237 64.399224,494.46789 L 64.399224,514.43809 L 64.386797,515.79264 C 64.330876,520.4714 64.324662,526.79054 70.233704,532.34541 L 41.011597,532.34541 C 47.069763,526.6787 47.094617,520.24772 47.057336,515.48196 L 47.051122,514.43809 z M 0.58032847,508.63468 L 0.10810219,507.74615 L -0.034808394,507.48518 C -0.034808394,507.47897 -0.33305657,507.47897 -0.33305657,507.47897 L -50.867482,507.47897 L -51.171943,507.47897 L -51.308641,507.76479 C -51.563394,508.2743 -57.366807,520.40306 -55.17344,525.63483 C -53.924526,528.64216 -53.47094,529.22623 -52.557555,530.42544 C -52.190958,530.90388 -51.706305,531.56872 -51.103595,532.45104 L -82.140046,532.34541 C -74.634133,523.67757 -71.900192,516.10953 -67.886268,504.85066 L -66.649781,501.39595 C -62.48052,490.6963 -39.527838,426.37411 -39.291724,425.70926 C -39.080465,425.04442 -38.87542,424.42307 -38.670374,423.82036 C -38.030383,421.90038 -37.527089,420.38429 -37.527089,418.97382 C -37.527089,416.64376 -38.179507,414.79213 -39.571332,412.97779 L -6.8075274,412.97779 C -8.5783759,415.00339 -9.2370073,416.32066 -9.1500182,418.63208 C -9.1003102,419.92449 -8.4416788,422.1365 -7.7954745,424.26773 C -7.5407208,425.11898 -7.3046077,425.92673 -7.1244161,426.61022 C -7.1119891,426.63507 17.244945,501.37731 17.244945,501.37731 C 21.258869,514.41945 24.545812,522.5405 31.815611,532.45104 L 0.85372263,532.45104 C 1.7919617,531.50659 2.1274909,530.3633 2.4940876,529.08953 C 2.7239872,528.28799 2.9849544,527.36839 3.4261131,526.39287 C 6.4520894,519.6885 2.9166058,513.04005 0.58032847,508.63468 M -159.57273,514.54372 L -159.57273,435.15379 C -159.57273,421.96252 -164.54974,416.28959 -170.01763,412.05198 C -169.24715,412.14518 -168.40212,412.25081 -167.47009,412.37508 C -163.00258,412.94672 -156.86985,413.74205 -149.61248,413.74205 C -143.26849,413.74205 -133.37038,413.45623 -125.4171,413.23255 L -115.41957,412.97779 C -103.471,412.74789 -93.560465,416.15289 -86.769106,422.81377 C -80.623951,428.84708 -77.374288,437.35958 -77.374288,447.43167 C -77.374288,460.81556 -83.382746,477.63551 -111.99593,481.81099 C -137.6577,485.50181 -142.22463,486.788 -142.22463,494.56109 L -142.22463,514.54372 L -142.23705,515.89205 C -142.29297,520.57703 -142.29919,526.88374 -136.37772,532.45104 L -165.61847,532.45104 C -159.55409,526.78432 -159.52923,520.35956 -159.56651,515.60002 L -159.57273,514.54372 z M -204.68898,508.65332 L -205.1612,507.74615 L -205.30411,507.48518 C -205.30411,507.47897 -205.60236,507.47897 -205.60236,507.47897 L -256.143,507.47897 L -256.45368,507.47897 L -256.59037,507.76479 C -256.83891,508.2743 -262.64854,520.40306 -260.45517,525.63483 C -259.20005,528.64216 -258.74025,529.23245 -257.82686,530.43165 C -257.46648,530.91009 -256.97561,531.57494 -256.37911,532.45104 L -287.41557,532.34541 C -279.90344,523.67757 -277.16328,516.10953 -273.15557,504.84444 L -271.9253,501.39595 C -267.75604,490.6963 -244.80336,426.37411 -244.56724,425.70926 C -244.35599,425.06927 -244.15715,424.46035 -243.96453,423.87628 C -243.31212,421.93766 -242.7964,420.39672 -242.7964,418.97382 C -242.7964,416.63755 -243.45503,414.78592 -244.85307,412.97779 L -212.08305,412.97779 C -213.84768,415.00339 -214.50631,416.33308 -214.42554,418.63208 C -214.36962,419.92449 -213.6737,422.23591 -213.07099,424.27394 C -212.81003,425.11898 -212.57391,425.92673 -212.39372,426.61022 C -212.38751,426.63507 -188.03679,501.37731 -188.03679,501.37731 C -184.00422,514.43188 -180.70485,522.55914 -173.47234,532.45104 L -204.40937,532.45104 C -203.48356,531.50659 -203.14803,530.3633 -202.78143,529.08953 C -202.54532,528.28799 -202.29057,527.36839 -201.84319,526.39287 C -198.83586,519.70093 -202.3527,513.0587 -204.68898,508.65332 M -356.1307,474.04411 L -372.78289,474.04411 C -372.74561,459.49829 -372.70833,446.09577 -372.70212,443.32454 L -372.54678,443.3494 L -356.1307,474.04411 z M -401.71918,412.88459 L -360.17569,412.88459 C -361.42461,414.26399 -363.46264,416.91715 -361.698,420.11089 C -361.71043,420.09225 -319.42132,505.50929 -319.42132,505.50929 L -318.48308,505.29182 L -318.50794,428.7166 C -318.50794,423.46619 -321.47799,418.56995 -327.84683,413.02129 L -291.97628,413.02129 C -298.35755,418.56995 -301.33381,423.46619 -301.33381,428.7166 L -301.33381,525.13153 C -301.33381,528.36877 -300.78081,530.66155 -299.67481,532.34541 L -327.28762,532.25221 C -325.33658,529.52448 -327.67286,525.15639 -329.78545,521.24188 C -330.23282,520.43412 -330.65534,519.65744 -331.00951,518.93046 C -331.02193,518.91803 -371.78252,442.6597 -371.78252,442.6597 L -371.90679,442.43601 L -372.14911,442.40495 L -373.12464,442.26203 L -373.69006,442.18747 L -373.69006,442.7529 C -373.69006,442.7529 -373.8889,515.55031 -373.8889,515.53167 C -374.10016,523.35447 -371.61475,527.21306 -368.15383,532.34541 L -398.1402,532.34541 C -397.40079,531.24562 -396.66139,530.17068 -396.01518,529.28837 C -393.28124,525.55405 -391.30535,522.8636 -391.06923,515.56274 L -391.06923,430.9286 C -391.06923,426.33061 -394.87811,417.64413 -401.71918,412.88459 M 430.91516,405.77013 L 430.91516,474.04411 L 410.23662,474.04411 L 410.24905,430.88511 C 410.24905,426.01994 411.77757,418.93654 419.06601,412.85974 L 420.11609,411.98363 L 418.74912,411.98363 L 382.62381,411.98363 L 381.25684,411.98363 L 382.30693,412.85974 C 388.03578,417.63171 390.93748,423.69609 390.93748,430.86026 L 390.91884,474.04411 L 347.61072,474.04411 C 347.59829,474.03789 347.59208,474.03789 347.57965,474.03168 C 360.715,469.06088 366.77317,456.49717 366.77317,446.59906 C 366.77317,437.56463 363.52972,429.61134 357.39078,423.58424 C 349.55555,415.89814 337.22796,411.63567 323.57689,411.89043 C 323.57068,411.89043 313.66635,412.14518 313.66635,412.14518 C 305.69443,412.37508 295.75903,412.64848 289.40262,412.64848 C 282.24466,412.64848 276.15543,411.87179 271.71899,411.29393 C 270.00406,411.07025 268.52525,410.87763 267.33847,410.77821 L 265.58626,410.6353 L 267.00294,411.67296 C 272.80014,415.90435 278.44821,421.18583 278.44821,435.04816 L 278.44821,474.04411 L 252.72431,474.04411 C 252.66839,454.81953 252.61868,434.53865 252.64353,431.56238 L 252.65596,431.56238 L 252.65596,431.0653 C 252.65596,426.19391 254.18448,419.11673 261.46671,413.03993 L 262.51679,412.16382 L 261.14982,412.16382 L 225.03072,412.16382 L 223.66375,412.16382 L 224.71383,413.03993 C 230.4054,417.78704 233.29468,423.87006 233.29468,431.13365 L 233.28225,474.04411 L 168.01561,474.04411 L 168.02804,430.88511 C 168.02804,426.01994 169.55035,418.93654 176.83257,412.85974 L 177.88887,411.98363 L 176.51568,411.98363 L 140.39659,411.98363 L 139.03583,411.98363 L 140.08591,412.85974 C 145.81476,417.63792 148.71026,423.69609 148.71026,430.86026 L 148.6854,474.04411 L 117.65516,474.04411 C 120.25241,472.09307 122.50791,469.88727 124.31604,467.35216 C 128.24297,461.85321 130.23751,455.11156 130.23751,447.32604 C 130.23751,436.99298 126.88843,428.23194 120.55066,422.01844 C 113.56047,415.16495 103.40139,411.65432 91.185639,411.89043 C 91.179425,411.89043 81.262673,412.14518 81.262673,412.14518 C 73.290748,412.37508 63.355356,412.64848 57.011369,412.64848 C 49.840985,412.64848 43.770392,411.87179 39.327737,411.29393 C 37.61281,411.07025 36.133996,410.87763 34.947217,410.77821 L 33.195009,410.6353 L 34.617901,411.67296 C 40.408887,415.91057 46.063175,421.19826 46.063175,435.04816 L 46.063175,474.04411 L 9.3786496,474.04411 C 2.400885,452.63859 -6.17375,426.3244 -6.17375,426.3244 C -6.3477281,425.66577 -6.5900547,424.84558 -6.8510219,423.98191 C -7.4475182,421.9998 -8.1185766,419.76294 -8.1620712,418.58859 C -8.2428467,416.4325 -7.7209124,415.35135 -5.3659945,412.81624 L -4.5893066,411.98363 L -5.7263777,411.98363 L -40.584133,411.98363 L -41.690137,411.98363 L -40.95073,412.81003 C -39.217162,414.73621 -38.515036,416.5257 -38.515036,418.97382 C -38.515036,420.21652 -38.99969,421.67048 -39.614827,423.50968 C -39.813659,424.11239 -40.018704,424.73995 -40.229964,425.41101 C -40.372874,425.8211 -49.798759,452.23471 -57.683695,474.04411 L -88.819562,474.04411 C -86.284453,472.12413 -84.078659,469.94319 -82.295383,467.45779 C -78.374662,461.95263 -76.386341,455.21719 -76.386341,447.43167 C -76.386341,437.0924 -79.73542,428.33136 -86.073193,422.11164 C -93.063385,415.25815 -103.21625,411.75373 -115.432,411.98363 L -125.44817,412.25081 C -133.39524,412.4745 -143.28092,412.74789 -149.61248,412.74789 C -156.80772,412.74789 -162.89695,411.96499 -167.33961,411.38092 C -169.03589,411.16345 -170.50228,410.97704 -171.68285,410.87141 L -173.42884,410.7285 L -172.00595,411.77237 C -166.21496,416.00998 -160.56689,421.29767 -160.56689,435.15379 L -160.56689,474.04411 L -195.89687,474.04411 C -202.86842,452.63859 -211.44927,426.3244 -211.44927,426.3244 C -211.62325,425.66577 -211.86557,424.84558 -212.12033,423.98812 C -212.71682,421.9998 -213.38788,419.76294 -213.43138,418.58859 C -213.51837,416.44493 -212.99643,415.35756 -210.64151,412.81624 L -209.87104,411.98363 L -211.0019,411.98363 L -245.85965,411.98363 L -246.97187,411.98363 L -246.22625,412.81003 C -244.49268,414.73 -243.79056,416.5257 -243.79056,418.97382 C -243.79056,420.22895 -244.28142,421.71398 -244.90277,423.5656 C -245.10161,424.14967 -245.30044,424.75859 -245.50548,425.41101 C -245.64218,425.8211 -255.07428,452.23471 -262.95922,474.04411 L -300.34587,474.04411 L -300.34587,428.7166 C -300.34587,423.50347 -297.28261,418.63208 -290.41669,412.90944 L -289.36661,412.02713 L -290.72736,412.02713 L -329.10196,412.02713 L -330.46272,412.02713 L -329.41264,412.90944 C -322.55914,418.63208 -319.49589,423.50968 -319.49589,428.7166 L -319.48346,474.04411 L -333.89257,474.04411 L -360.8219,419.65731 C -362.4312,416.74317 -360.16948,414.3137 -359.0759,413.15798 C -358.90193,412.96536 -358.77144,412.82245 -358.66581,412.69197 L -358.01961,411.89043 L -359.05105,411.89043 L -403.28498,411.89043 L -405.11175,411.89043 L -403.53352,412.81003 C -396.15188,417.1222 -392.06339,426.26226 -392.06339,430.9286 L -392.06339,474.04411 L -410.90895,474.04411 L -410.90895,405.77013 L 430.91516,405.77013 z M -415.625,547.04656 L 435.625,547.04656 L 435.625,401.06029 L -415.625,401.06029 L -415.625,547.04656 z"
       id="path101"
       style="fill:#231f20;fill-opacity:1;fill-rule:nonzero;stroke:none" />
    <path
       d="M 297.82192,441.73389 C 297.77842,437.46521 298.72909,434.49515 300.79818,432.39499 C 303.55077,429.61755 308.3973,428.31893 316.02748,428.31893 C 323.08602,428.31893 334.89789,428.31893 340.85043,434.39574 C 343.49738,437.09861 344.80222,440.8205 344.7028,445.4682 C 344.41698,459.73441 332.22609,462.60505 319.09695,463.56814 C 314.96497,463.87881 311.64696,463.89124 308.7204,463.90367 C 304.25289,463.92231 300.94731,463.9658 297.72871,465.06559 C 297.74735,461.33128 297.82192,441.7401 297.82192,441.73389 M 308.7204,464.89161 C 311.6656,464.87919 315.00225,464.86676 319.17151,464.5623 C 332.76666,463.5495 345.39871,460.54838 345.69696,445.49306 C 345.79638,440.57196 344.39834,436.60153 341.55877,433.69983 C 335.3142,427.33099 323.23515,427.33099 316.02748,427.33099 C 308.11769,427.33099 303.04747,428.72281 300.10227,431.70529 C 297.85298,433.96079 296.78426,437.25395 296.82776,441.74631 C 296.82776,441.7401 296.73455,465.73044 296.73455,465.73044 L 296.73455,466.45742 L 297.41182,466.19645 C 300.6677,464.91647 304.04785,464.90404 308.7204,464.89161"
       id="path105"
       style="fill:#231f20;fill-opacity:1;fill-rule:nonzero;stroke:none" />
    <path
       d="M -242.81504,474.04411 L -228.72902,436.74444 L -216.63133,474.04411 L -242.81504,474.04411 z M -227.9834,435.83106 L -228.08903,435.48932 L -228.45563,435.48932 L -228.97756,435.48932 L -229.31931,435.48932 L -229.43736,435.81242 L -250.93609,492.73432 L -251.17841,493.3681 L -250.50114,493.40538 C -244.43676,493.74713 -218.29655,493.74713 -209.97046,493.40538 L -209.31804,493.38053 L -209.51687,492.75297 L -227.9834,435.83106 z"
       id="path109"
       style="fill:#231f20;fill-opacity:1;fill-rule:nonzero;stroke:none" />
    <path
       d="M 65.430666,441.74015 C 65.430666,433.33949 72.240666,428.31898 83.636232,428.31898 C 93.341724,428.31898 100.41891,430.51856 104.66894,434.8618 C 107.84404,438.09282 109.39742,442.56655 109.29179,448.14627 C 109.03082,461.26919 100.08959,464.04663 87.501031,466.53203 C 77.37302,468.50171 70.786706,469.85004 65.343677,471.87564 L 65.430666,441.74015 z M 87.687436,467.50134 C 100.74201,464.92273 110.00634,462.03345 110.27974,448.16491 C 110.39158,442.31179 108.745,437.59574 105.37728,434.16589 C 100.92841,429.63003 93.608905,427.33103 83.636232,427.33103 C 65.822117,427.33103 64.442719,438.36 64.442719,441.74015 L 64.349516,472.56534 L 64.349516,473.28611 L 65.033002,473.02514 C 70.513312,470.89391 77.211469,469.53937 87.687436,467.50134"
       id="path113"
       style="fill:#231f20;fill-opacity:1;fill-rule:nonzero;stroke:none" />
    <path
       d="M -37.551943,474.04411 L -23.459717,436.73202 L -11.355812,474.04411 L -37.551943,474.04411 z M -22.714097,435.83106 L -22.819726,435.48932 L -23.180109,435.48932 L -23.708257,435.48932 L -24.05,435.48932 L -24.17427,435.81242 L -45.660566,492.73432 L -45.902892,493.3681 L -45.22562,493.40538 C -39.161241,493.74713 -13.021031,493.74713 -4.7011496,493.40538 L -4.0487318,493.38053 L -4.2475639,492.75297 L -22.714097,435.83106 z"
       id="path117"
       style="fill:#231f20;fill-opacity:1;fill-rule:nonzero;stroke:none" />
    <path
       d="M -141.19318,441.83952 C -141.19318,433.43265 -134.3894,428.42456 -122.98762,428.42456 C -113.28213,428.42456 -106.21116,430.61793 -101.96112,434.95495 C -98.786022,438.1984 -97.232646,442.67213 -97.344489,448.25185 C -97.605456,461.36856 -106.53426,464.14599 -119.12903,466.6314 C -129.25083,468.60108 -135.83093,469.94941 -141.28017,471.9688 L -141.19318,441.83952 z M -118.93641,467.59449 C -105.88806,465.0221 -96.629936,462.13282 -96.356542,448.27671 C -96.238485,442.41737 -97.87885,437.70132 -101.25278,434.26526 C -105.70165,429.73561 -113.00873,427.4304 -122.98762,427.4304 C -140.79552,427.4304 -142.18734,438.45937 -142.18734,441.83952 L -142.26812,472.66471 L -142.26812,473.38547 L -141.59085,473.12451 C -136.10432,470.99328 -129.40617,469.63873 -118.93641,467.59449"
       id="path121"
       style="fill:#231f20;fill-opacity:1;fill-rule:nonzero;stroke:none" />
  </g>
</svg>
